<?xml version="1.0" encoding="utf-8"?>
<!-- Generator: Adobe Illustrator 24.2.0, SVG Export Plug-In . SVG Version: 6.00 Build 0)  -->
<svg version="1.1" id="Layer_1" xmlns="http://www.w3.org/2000/svg" xmlns:xlink="http://www.w3.org/1999/xlink" x="0px" y="0px"
	 viewBox="0 0 226.8 226.8" style="enable-background:new 0 0 226.8 226.8;" xml:space="preserve">
<style type="text/css">
	.st0{fill:#0763AF;}
	.st1{fill:#FFFFFF;}
	.st2{fill:#FDED0A;}
	.st3{fill:#D91F26;}
	.st4{font-family:'HelveticaNeueLTStd-Bd';}
	.st5{font-size:9.0249px;}
</style>
<g>
	<path class="st0" d="M145,161.4c-7.6,4.2-31.6,14.6-31.6,14.6S88,165,78.1,158.5c-6.3-4.2-9-7.4-13.1-13.6c-2.7-4.1-4.4-9.7-5.1-13
		c-0.4-1.6-0.6-3.3-0.6-4.9V60c0,0,26.3-10.2,54.1-9.2c36.5,1.3,54.1,9.2,54.1,9.2v70.9c0,0.2,0,0.4,0,0.7
		c-0.3,1.8-1.9,10.8-6.9,16.6C157.2,152,151.4,157.9,145,161.4z"/>
	<path class="st1" d="M164.1,128.1c0,0,2,14.7-17.1,27.9c-8.6,6-33.3,16.5-33.3,16.5S88,161.2,80.4,155.8
		c-15.4-11.1-17.1-25.2-17.1-25.2V99.8c0,0,21.7-8.7,50.1-8.7c35.7,0,50.8,8.7,50.8,8.7V128.1z"/>
	<path class="st1" d="M164.1,128.1c0,0,2,14.7-17.1,27.9c-8.6,6-33.3,16.5-33.3,16.5S88,161.2,80.4,155.8
		c-15.4-11.1-17.1-25.2-17.1-25.2V99.8c0,0,21.7-8.7,50.1-8.7c35.7,0,50.8,8.7,50.8,8.7V128.1z"/>
	<path class="st2" d="M164.1,129.2c0,0,2,14.3-17.1,27.3c-8.6,5.8-33.3,16.1-33.3,16.1s-25.8-11-33.3-16.4
		c-15.4-10.8-17.1-24.6-17.1-24.6v-30c0,0,21.7-8.5,50.1-8.5c35.7,0,50.8,8.5,50.8,8.5V129.2z"/>
	<path class="st3" d="M131.5,143.2l-1-0.8c0,0,4-2.7,4.4-8.7c0.5-7.2-9.8-12.5-8.7-24.1c0.6-5.9,6.1-9.3,6.1-9.3l0.9,0.3
		c0,0-4.3,4.2-5,8.6c-1.6,10.1,8.6,15.5,9,21.2C137.8,140.2,131.5,143.2,131.5,143.2z"/>
	<path class="st3" d="M117.6,154.1c-14.8,5.7-14.3-3-14.3-3s0.6,1.8,2.9,2.3c2.4,0.5,6.6-0.4,11.4-2.1c6.7-2.5,8.8-5.4,9.5-7.3
		c0.6-1.6-0.5-3.3-0.5-3.3s1.6,0.7,2,2.2C129.4,145.5,127.9,150.2,117.6,154.1z"/>
	<path class="st3" d="M126.8,134.2c-1.1,8.1-6.3,9-6.3,9s4.7-3.7,3.7-9.8c-0.3-2-1.7-5.7-2-7.7c-0.6-3.2,1.2-4.9,1.2-4.9
		s-0.2,1.6,0.7,4.6C125,128.5,127.3,130.6,126.8,134.2z"/>
	<path class="st3" d="M117.1,125.8c-0.3-0.6-1.1-0.5-1.3,0c-0.4,1.1-1.1,2.5-1.8,3.5c-1,1.3-2.5,2.1-3.6,3.2
		c-3.6,3.6-7.1,5.6-7.7,8.6c-0.9,4.1,3.4,6.6,3.4,6.6s-1.8-5.1-1-6.6c1.7-3.4,3.6-4.6,5.9-6.8c1.4-1.3,4-3.9,5-4.9
		c0.2-0.2,0.5-0.1,0.6,0.1c0.4,1.1,1.3,3.5,1.8,2.5C119.1,130.5,117.9,127.6,117.1,125.8z"/>
	<path class="st3" d="M99.2,142.9c0.5,2.3,2.4,4.8,5.3,6.1c2,0.9,4.3,0.9,5.6,1.3c1.1,0.4-0.1,0.7-0.1,0.7s-13.7-0.2-14.7-9.5
		c-1.2-11.3,8-13.6,13.8-16.8c1.6-0.9,4.6-2.5,6.4-5.3c1.5-2.4,1.9-6.1,2.8-7.6c2.7-3.8,2.8-2.2,2.8-2.2s-1.1,0.6-1.6,2.2
		c-0.7,2.1-0.9,5.5-2.1,7.9c-1.2,2.5-3.2,4.2-3.6,4.7C109.3,130.4,95.5,126.8,99.2,142.9z"/>
	<path class="st3" d="M128.6,165.4c0.1,0.4,0,0.5-0.4,0.7l-1.4,0.6l-1.6-6.9c-0.1-0.6-0.7-0.9-1.3-0.7l-6.9,2.7
		c-1,0.4-1.4,1.5-0.9,2.4l3,5.9l-2.2,1l-4.2-7.9c-0.5-0.9-1.3-1.5-2.3-1.8c-1-0.2-2.1-0.6-2.5-1.2c-0.8-1-0.4-2.2-0.4-2.2
		s5.3,3.6,12.5-0.3c9.4-5,9.2-9.6,9.2-9.6s1.5,0.4,1,2.7c-0.3,1.1-1.2,2.7-1.8,3.7c-0.5,0.7-0.7,1.6-0.5,2.5L128.6,165.4z"/>
	<g>
		<text transform="matrix(1.7235 0 0 1.67 81.4688 72.0073)" class="st1 st4 st5">HUTECH</text>
		<text transform="matrix(1.4971 0 0 1.54 81.4678 85.4673)" class="st1 st4 st5">University</text>
	</g>
</g>
<image style="overflow:visible;" width="958" height="749" xlink:href="50715DAD.jpg"  transform="matrix(0.3508 0 0 0.3836 261.1304 -24.9294)">
</image>
</svg>
